<svg width="60" height="60" viewBox="0 0 60 60" fill="none" xmlns="http://www.w3.org/2000/svg">
<g id="growth 1">
<rect width="60" height="60" rx="4" fill="white"/>
<g id="#474_growth_outline">
<path id="Vector" d="M38.1855 30.756C37.698 29.608 36.5955 28.926 35.6355 29.296C35.3985 28.398 34.7115 27.802 34.005 27.666C33.2985 27.53 32.5785 27.788 31.9275 28.18C31.6696 27.8494 31.3525 27.6126 31.0063 27.4922C30.6602 27.3718 30.2967 27.3717 29.9505 27.4921C29.6044 27.6125 29.2872 27.8493 29.0293 28.1798C28.7714 28.5104 28.5814 28.9236 28.4775 29.38C28.4546 29.5664 28.3909 29.7396 28.2945 29.878C28.177 29.9779 28.0393 30.0275 27.9 30.02C26.991 30.114 25.8615 30.82 25.1235 31.556C24.5565 32.116 24.3735 33.1 24.321 33.992C24.228 35.76 24.6015 38.108 25.521 39.456C26.5215 40.922 28.047 41.612 29.5335 41.67C31.02 41.728 32.4885 41.216 33.9 40.6C36.348 39.526 38.8005 38.05 40.6755 35.634C41.4615 34.624 42.213 33.434 41.2095 32.28C40.809 31.82 40.386 31.408 39.8595 31.244C39.735 31.206 38.3265 31.13 38.3805 31.428C38.339 31.1931 38.2734 30.967 38.1855 30.756Z" fill="#725858"/>
<path id="Vector_2" d="M29.76 41.876C29.683 41.876 29.6065 41.876 29.5305 41.876C27.8565 41.812 26.355 40.982 25.4115 39.598C24.429 38.158 24.081 35.742 24.1725 33.986C24.2355 32.776 24.5265 31.906 25.0365 31.404C25.758 30.692 26.9205 29.93 27.8865 29.828H27.909C28.0098 29.8338 28.1097 29.8012 28.197 29.734C28.2602 29.6378 28.3023 29.5201 28.3185 29.394L28.3335 29.332C28.4423 28.8548 28.639 28.4215 28.9056 28.0717C29.1723 27.7219 29.5004 27.4668 29.8601 27.3295C30.2197 27.1923 30.5994 27.1774 30.9645 27.2861C31.3295 27.3948 31.6684 27.6238 31.95 27.952C32.7 27.516 33.402 27.352 34.02 27.476C34.791 27.624 35.4435 28.24 35.7195 29.076C36.2227 28.9563 36.7413 29.0456 37.2051 29.3318C37.669 29.6179 38.0557 30.0872 38.313 30.676C38.3715 30.818 38.4216 30.9657 38.463 31.118C38.895 30.952 39.846 31.052 39.8925 31.066C40.461 31.242 40.9065 31.688 41.3025 32.144C41.6475 32.544 41.8275 32.978 41.8365 33.448C41.8545 34.286 41.337 35.07 40.776 35.794C39.156 37.88 36.9855 39.472 33.942 40.806C32.7105 41.328 31.254 41.876 29.76 41.876ZM30.462 27.61C30.3021 27.6096 30.1428 27.6365 29.988 27.69C29.669 27.8065 29.3769 28.0276 29.1384 28.3333C28.9 28.639 28.7228 29.0195 28.623 29.44L28.6095 29.498C28.5806 29.7025 28.5046 29.8899 28.392 30.034C28.2583 30.1593 28.098 30.2245 27.9345 30.22H27.9135C27.003 30.314 25.902 31.04 25.2135 31.718C24.777 32.148 24.528 32.918 24.471 34.006C24.3855 35.622 24.714 37.976 25.632 39.322C26.5215 40.626 27.945 41.408 29.532 41.47C31.0605 41.526 32.5695 40.964 33.8475 40.404C36.8475 39.09 38.9805 37.526 40.566 35.484C41.0775 34.824 41.55 34.12 41.5365 33.436C41.5275 33.08 41.3865 32.75 41.106 32.426C40.7385 32.004 40.329 31.59 39.822 31.426C39.6555 31.38 38.73 31.364 38.5215 31.476C38.5118 31.518 38.4919 31.5546 38.465 31.5801C38.4382 31.6056 38.4057 31.6185 38.3727 31.6169C38.3398 31.6153 38.3081 31.5993 38.2827 31.5713C38.2572 31.5433 38.2394 31.5049 38.232 31.462C38.1926 31.2455 38.1305 31.0374 38.0475 30.844C37.581 29.746 36.5355 29.146 35.667 29.478C35.6302 29.4921 35.5908 29.4869 35.5567 29.4635C35.5227 29.4401 35.4967 29.4002 35.484 29.352C35.28 28.58 34.686 27.99 33.9735 27.854C33.387 27.74 32.7165 27.908 31.9785 28.352C31.9513 28.3683 31.9211 28.3733 31.8917 28.3666C31.8623 28.3598 31.8351 28.3415 31.8135 28.314C31.4453 27.8613 30.9628 27.61 30.462 27.61Z" fill="#093F68"/>
<path id="Vector_3" d="M16.1715 34.544H20.013C20.013 34.544 23.0595 28.422 25.251 29.344C30.636 31.62 32.6385 33.006 34.002 33.962C34.626 34.4 34.0845 36.064 34.0845 36.064C36.5537 34.694 38.9317 33.0481 41.193 31.144C42.378 30.144 44.2635 31.532 43.743 33.284C43.2225 35.036 36.198 42.026 33.006 43.166C29.814 44.306 16.3245 43.244 16.3245 43.244L16.1715 34.544Z" fill="#FFC9B0"/>
<path id="Vector_4" d="M26.8755 43.902C22.152 43.902 16.665 43.478 16.311 43.45C16.2728 43.4469 16.2369 43.4245 16.2107 43.3874C16.1845 43.3502 16.1699 43.301 16.17 43.25L16.02 34.544C16.0197 34.5173 16.0234 34.4909 16.0309 34.4661C16.0383 34.4414 16.0494 34.4189 16.0635 34.4C16.0771 34.3805 16.0936 34.3651 16.1119 34.3548C16.1303 34.3444 16.1501 34.3394 16.17 34.34H19.932C20.337 33.54 23.1435 28.246 25.2945 29.154C30.7635 31.466 32.754 32.864 34.0695 33.788C34.59 34.152 34.464 35.134 34.3365 35.71C36.6842 34.3701 38.9496 32.7873 41.112 30.976C41.886 30.324 42.864 30.618 43.4295 31.246C43.9365 31.81 44.1045 32.6 43.8795 33.36C43.3395 35.16 36.279 42.206 33.0435 43.36C31.902 43.77 29.5065 43.902 26.8755 43.902ZM16.4655 43.062C17.901 43.168 30.003 44.034 32.9655 42.978C36.0495 41.878 43.089 34.924 43.602 33.216C43.782 32.616 43.65 32.016 43.242 31.558C42.7725 31.036 41.9235 30.774 41.2755 31.318C39.0051 33.2267 36.6187 34.8784 34.1415 36.256C34.114 36.2701 34.0839 36.2731 34.0551 36.2646C34.0263 36.2561 34 36.2364 33.9795 36.208C33.9589 36.1797 33.9451 36.1438 33.9398 36.1051C33.9345 36.0663 33.9378 36.0262 33.9495 35.99C33.9495 35.976 34.4205 34.486 33.9345 34.146C32.628 33.228 30.6525 31.842 25.209 29.546C23.151 28.676 20.172 34.6 20.142 34.66C20.1283 34.6878 20.1096 34.7106 20.0876 34.7263C20.0656 34.742 20.041 34.7502 20.016 34.75H16.3245L16.4655 43.062Z" fill="#093F68"/>
<path id="Vector_5" d="M32.427 37.15C31.695 37.15 30.777 36.914 29.6055 36.614L29.4915 36.584C27.841 36.1423 26.2084 35.5889 24.6 34.926C24.5812 34.9181 24.5637 34.9054 24.5486 34.8885C24.5335 34.8716 24.521 34.8509 24.5119 34.8276C24.5028 34.8043 24.4972 34.7789 24.4954 34.7527C24.4937 34.7265 24.4958 34.7001 24.5017 34.675C24.5077 34.6499 24.5172 34.6266 24.5299 34.6065C24.5425 34.5863 24.558 34.5697 24.5755 34.5575C24.593 34.5454 24.6121 34.5379 24.6317 34.5356C24.6514 34.5333 24.6712 34.5361 24.69 34.544C26.2878 35.2061 27.9099 35.7588 29.55 36.2L29.664 36.23C31.947 36.816 33.204 37.14 33.972 35.95C33.9827 35.9244 33.9975 35.9023 34.0153 35.8852C34.0331 35.8681 34.0536 35.8564 34.0751 35.8509C34.0967 35.8455 34.1189 35.8465 34.1402 35.8537C34.1615 35.861 34.1813 35.8744 34.1983 35.893C34.2152 35.9116 34.2289 35.9349 34.2384 35.9614C34.2478 35.9878 34.2528 36.0167 34.253 36.046C34.2531 36.0752 34.2485 36.1042 34.2393 36.1308C34.2302 36.1574 34.2168 36.1811 34.2 36.2C33.75 36.896 33.1875 37.15 32.427 37.15Z" fill="#093F68"/>
<path id="Vector_6" d="M42 14.726C42 14.726 39.9975 13.326 36.654 15.596C34.092 17.336 33.6225 21.35 33.5415 23.128C33.471 21.71 32.9415 18.86 30.048 16.74C26.0415 13.806 22.857 17.44 22.857 17.44C22.857 17.44 22.758 22.65 27.8805 24.008C30.591 24.726 32.013 24.684 32.7525 24.486C33.2625 26.47 32.7 30.6 32.7 30.6L34.0875 30.4C34.4895 28.548 34.2375 25.2 34.128 24.032C43.287 24.21 42 14.726 42 14.726Z" fill="white"/>
<path id="Vector_7" d="M32.7 30.8C32.6794 30.7999 32.6591 30.7942 32.6402 30.7832C32.6214 30.7722 32.6045 30.7561 32.5905 30.736C32.5744 30.7134 32.5625 30.686 32.5557 30.6562C32.5489 30.6263 32.5475 30.5947 32.5515 30.564C32.5515 30.524 33.075 26.676 32.6505 24.706C31.9005 24.87 30.4785 24.892 27.8505 24.196C22.6635 22.822 22.704 17.482 22.7055 17.428C22.7059 17.3998 22.7108 17.372 22.7199 17.3465C22.7289 17.321 22.7419 17.2983 22.758 17.28C22.791 17.244 26.0685 13.592 30.1185 16.556C32.3115 18.156 33.1785 20.178 33.51 21.73C33.7635 19.73 34.4955 16.828 36.585 15.41C39.9585 13.118 41.985 14.482 42.069 14.54C42.0892 14.5542 42.1068 14.5743 42.1203 14.5989C42.1338 14.6236 42.143 14.652 42.147 14.682C42.1665 14.832 42.6225 18.36 40.8705 21.116C39.546 23.2 37.335 24.242 34.2945 24.226C34.419 25.662 34.6125 28.686 34.23 30.448C34.2216 30.4858 34.205 30.5194 34.1823 30.5447C34.1596 30.57 34.1319 30.5857 34.1025 30.59L32.715 30.79L32.7 30.8ZM32.7525 24.278C32.7837 24.2778 32.8143 24.2905 32.8398 24.3146C32.8654 24.3386 32.8847 24.3727 32.895 24.412C33.345 26.154 32.997 29.412 32.8815 30.372L33.969 30.208C34.3305 28.342 34.0695 25.034 33.9795 24.048C33.9767 24.0198 33.9785 23.9911 33.9847 23.9638C33.9909 23.9366 34.0014 23.9114 34.0155 23.89C34.0303 23.8695 34.048 23.8532 34.0675 23.8418C34.0871 23.8305 34.1082 23.8245 34.1295 23.824C37.1625 23.882 39.354 22.884 40.6425 20.858C42.1425 18.496 41.9235 15.458 41.865 14.858C41.4945 14.658 39.615 13.802 36.723 15.768C34.209 17.476 33.765 21.488 33.6915 23.134C33.6892 23.1849 33.6724 23.2328 33.6445 23.2677C33.6166 23.3027 33.5798 23.3221 33.5415 23.322C33.5035 23.3221 33.4668 23.303 33.439 23.2685C33.4111 23.2339 33.3941 23.1866 33.3915 23.136C33.321 21.692 32.781 18.964 29.976 16.91C26.376 14.278 23.433 17.088 23.007 17.53C23.019 18.238 23.286 22.58 27.9105 23.806C30.6525 24.532 32.0415 24.466 32.724 24.284C32.7325 24.2831 32.7411 24.2838 32.7495 24.286L32.7525 24.278Z" fill="#093F68"/>
<path id="Vector_8" d="M31.761 31.1C31.761 31.1 32.091 29.754 33.48 29.688C34.869 29.622 35.2335 30.608 35.2335 30.608" fill="#725858"/>
<path id="Vector_9" d="M31.761 31.3C31.7452 31.3006 31.7294 31.2972 31.7145 31.29C31.6767 31.2735 31.6454 31.2377 31.6274 31.1905C31.6094 31.1432 31.6062 31.0884 31.6185 31.038C31.6335 30.978 31.998 29.558 33.4755 29.488C34.953 29.418 35.3505 30.474 35.3685 30.52C35.386 30.5677 35.3886 30.6228 35.3756 30.6731C35.3627 30.7233 35.3353 30.7647 35.2995 30.788C35.2637 30.8113 35.2224 30.8148 35.1847 30.7975C35.147 30.7803 35.116 30.7437 35.0985 30.696C35.085 30.662 34.7475 29.828 33.486 29.896C32.2245 29.964 31.9065 31.158 31.9035 31.17C31.8927 31.2086 31.8732 31.2418 31.8477 31.2651C31.8222 31.2884 31.7919 31.3005 31.761 31.3Z" fill="#093F68"/>
<path id="Vector_10" d="M34.7895 22.654C34.7637 22.6541 34.7384 22.6453 34.7159 22.6285C34.6934 22.6117 34.6745 22.5874 34.6611 22.5581C34.6477 22.5288 34.6402 22.4953 34.6393 22.4609C34.6384 22.4266 34.6441 22.3925 34.656 22.362C34.674 22.316 36.456 17.848 40.2615 16.264C40.2804 16.256 40.3003 16.253 40.3201 16.2553C40.3399 16.2576 40.3591 16.2651 40.3767 16.2774C40.3943 16.2897 40.4098 16.3065 40.4225 16.3268C40.4352 16.3472 40.4447 16.3707 40.4505 16.396C40.4622 16.4467 40.4584 16.5014 40.4398 16.5483C40.4212 16.5952 40.3895 16.6303 40.3515 16.646C36.666 18.178 34.9395 22.502 34.923 22.546C34.9103 22.5786 34.8912 22.6059 34.8676 22.625C34.8441 22.644 34.817 22.6541 34.7895 22.654Z" fill="#093F68"/>
<path id="Vector_11" d="M32.7 23.552C32.6791 23.5519 32.6584 23.546 32.6393 23.5347C32.6201 23.5233 32.603 23.5067 32.589 23.486C30.189 19.984 24.0255 18.004 23.964 17.986C23.9242 17.9738 23.8897 17.941 23.868 17.8949C23.8464 17.8488 23.8393 17.793 23.8485 17.74C23.8576 17.687 23.8822 17.6409 23.9168 17.6121C23.9514 17.5832 23.9932 17.5738 24.033 17.586C25.2027 17.9782 26.3546 18.4597 27.483 19.028C29.9835 20.288 31.7775 21.694 32.8155 23.206C32.8423 23.245 32.8564 23.2966 32.8547 23.3495C32.853 23.4023 32.8357 23.4521 32.8065 23.488C32.7929 23.5076 32.7764 23.5234 32.7581 23.5344C32.7398 23.5454 32.72 23.5514 32.7 23.552Z" fill="#093F68"/>
</g>
</g>
</svg>
