<svg width="56" height="56" viewBox="0 0 56 56" fill="none" xmlns="http://www.w3.org/2000/svg">
<g id="shopping_cart-24px 2" clip-path="url(#clip0_25_811)">
<path id="Vector" d="M16.3333 42C13.7667 42 11.69 44.1 11.69 46.6667C11.69 49.2333 13.7667 51.3333 16.3333 51.3333C18.9 51.3333 21 49.2333 21 46.6667C21 44.1 18.9 42 16.3333 42ZM2.33334 4.66666V9.33332H7.00001L15.4 27.0433L12.25 32.76C11.8767 33.4133 11.6667 34.1833 11.6667 35C11.6667 37.5667 13.7667 39.6667 16.3333 39.6667H44.3333V35H17.3133C16.9867 35 16.73 34.7433 16.73 34.4167L16.8 34.1367L18.9 30.3333H36.2833C38.0333 30.3333 39.5733 29.3767 40.3667 27.93L48.72 12.7867C48.9067 12.46 49 12.0633 49 11.6667C49 10.3833 47.95 9.33332 46.6667 9.33332H12.1567L9.96334 4.66666H2.33334ZM39.6667 42C37.1 42 35.0233 44.1 35.0233 46.6667C35.0233 49.2333 37.1 51.3333 39.6667 51.3333C42.2333 51.3333 44.3333 49.2333 44.3333 46.6667C44.3333 44.1 42.2333 42 39.6667 42Z" fill="black" fill-opacity="0.8"/>
</g>
<defs>
<clipPath id="clip0_25_811">
<rect width="56" height="56" fill="white"/>
</clipPath>
</defs>
</svg>
